<svg xmlns="http://www.w3.org/2000/svg" viewBox="0 0 280 100">
  <title>Avaya</title>
  <g fill="#DA291C">
    <!-- A -->
    <path d="M8 78L28 22h8L56 78h-9l-5.5-15H22.5L17 78H8zm17-22h14L30.5 34 25 56z"/>
    <!-- V -->
    <path d="M60 22h9l15 40 15-40h9L88 78h-8L60 22z"/>
    <!-- A -->
    <path d="M112 78L132 22h8L160 78h-9l-5.5-15h-19L121 78h-9zm17-22h14L134.5 34 129 56z"/>
    <!-- Y -->
    <path d="M164 22h9l14.5 28L202 22h9l-21.5 40V78h-8V62L164 22z"/>
    <!-- A -->
    <path d="M216 78L236 22h8L264 78h-9l-5.5-15h-19L225 78h-9zm17-22h14L238.5 34 233 56z"/>
  </g>
</svg>
